<svg width="768" height="1037" viewBox="0 0 768 1037" fill="none" xmlns="http://www.w3.org/2000/svg">
<g clip-path="url(#clip0_21_2)">
<g clip-path="url(#clip1_21_2)">
<path d="M-148.215 874.149C-147.781 992.872 -51.1677 1088.76 67.5765 1088.33C186.321 1087.9 282.23 991.301 281.796 872.577C281.362 753.854 184.749 657.962 66.0049 658.396C-52.7392 658.829 -148.649 755.425 -148.215 874.149Z" fill="#1ED760"/>
<path d="M733.999 764.971C777.077 764.971 811.999 730.056 811.999 686.986C811.999 643.915 777.077 609 733.999 609C690.921 609 656 643.915 656 686.986C656 730.056 690.921 764.971 733.999 764.971Z" fill="#1ED760"/>
<path d="M731.129 296.193C832.268 296.193 914.257 214.218 914.257 113.097C914.257 11.9751 832.268 -70 731.129 -70C629.99 -70 548 11.9751 548 113.097C548 214.218 629.99 296.193 731.129 296.193Z" fill="#1ED760"/>
<path d="M230.156 855.138C230.284 890.131 258.759 918.394 293.757 918.266C328.756 918.138 357.024 889.667 356.896 854.675C356.768 819.683 328.292 791.42 293.294 791.548C258.296 791.676 230.028 820.146 230.156 855.138Z" fill="#1ED760"/>
<mask id="mask0_21_2" style="mask-type:alpha" maskUnits="userSpaceOnUse" x="-145" y="650" width="431" height="431">
<path d="M-144.145 866.011C-143.711 984.734 -47.0981 1080.63 71.646 1080.19C190.39 1079.76 286.299 983.163 285.865 864.44C285.431 745.716 188.819 649.824 70.0744 650.258C-48.6697 650.692 -144.579 747.288 -144.145 866.011Z" fill="#FAE62D"/>
</mask>
<g mask="url(#mask0_21_2)">
<path d="M230.156 855.138C230.284 890.131 258.759 918.394 293.757 918.266C328.756 918.138 357.024 889.667 356.896 854.675C356.768 819.683 328.292 791.42 293.294 791.548C258.296 791.676 230.028 820.146 230.156 855.138Z" fill="#2D46B9"/>
</g>
</g>
</g>
<defs>
<clipPath id="clip0_21_2">
<rect width="768" height="1037" fill="white"/>
</clipPath>
<clipPath id="clip1_21_2">
<rect width="917" height="1222" fill="white" transform="translate(-149 -132)"/>
</clipPath>
</defs>
</svg>
