<svg width="1512" height="982" viewBox="0 0 1512 982" fill="none" xmlns="http://www.w3.org/2000/svg">
<g clip-path="url(#clip0_9_4)">
<rect width="1512" height="982" fill="#2D46B9"/>
<path d="M1685.32 711.457C1895.36 711.457 2065.64 552.192 2065.64 355.729C2065.64 159.265 1895.36 0 1685.32 0C1475.28 0 1305 159.265 1305 355.729C1305 552.192 1475.28 711.457 1685.32 711.457Z" fill="#1ED760"/>
<path d="M16.4731 1596C311.654 1596 550.946 1370.18 550.946 1091.61C550.946 813.041 311.654 587.218 16.4731 587.218C-278.708 587.218 -518 813.041 -518 1091.61C-518 1370.18 -278.708 1596 16.4731 1596Z" fill="#1ED760"/>
<path d="M1144.53 958.208C1144.53 997.784 1110.52 1029.92 1068.51 1029.92C1026.5 1029.92 992.5 997.784 992.5 958.208C992.5 918.631 1026.5 886.5 1068.51 886.5C1110.52 886.5 1144.53 918.631 1144.53 958.208Z" fill="#1ED760" stroke="#1ED760"/>
<path d="M-7.15622 717.828C79.8446 717.828 150.373 651.27 150.373 569.166C150.373 487.062 79.8446 420.503 -7.15622 420.503C-94.157 420.503 -164.685 487.062 -164.685 569.166C-164.685 651.27 -94.157 717.828 -7.15622 717.828Z" fill="#1ED760"/>
<mask id="mask0_9_4" style="mask-type:alpha" maskUnits="userSpaceOnUse" x="-518" y="587" width="1069" height="1009">
<path d="M16.4731 1596C311.654 1596 550.946 1370.18 550.946 1091.61C550.946 813.041 311.654 587.218 16.4731 587.218C-278.708 587.218 -518 813.041 -518 1091.61C-518 1370.18 -278.708 1596 16.4731 1596Z" fill="#1ED760"/>
</mask>
<g mask="url(#mask0_9_4)">
<path d="M-7.15622 717.828C79.8446 717.828 150.373 651.27 150.373 569.166C150.373 487.062 79.8446 420.503 -7.15622 420.503C-94.157 420.503 -164.685 487.062 -164.685 569.166C-164.685 651.27 -94.157 717.828 -7.15622 717.828Z" fill="#2D46B9"/>
</g>
</g>
<defs>
<clipPath id="clip0_9_4">
<rect width="1512" height="982" fill="white"/>
</clipPath>
</defs>
</svg>
