<svg width="50" height="50" viewBox="0 0 50 50" fill="none" xmlns="http://www.w3.org/2000/svg">
<path d="M25 0.78125C11.1996 0.78125 0 11.6309 0 25C0 38.3691 11.1996 49.2188 25 49.2188C38.8004 49.2188 50 38.3691 50 25C50 11.6309 38.8004 0.78125 25 0.78125ZM35.1512 36.416C34.7278 36.416 34.4657 36.2891 34.0726 36.0645C27.7823 32.3926 20.4637 32.2363 13.2359 33.6719C12.8427 33.7695 12.3286 33.9258 12.0363 33.9258C11.0585 33.9258 10.4435 33.1738 10.4435 32.3828C10.4435 31.377 11.0585 30.8984 11.8145 30.7422C20.0706 28.9746 28.5081 29.1309 35.7056 33.3008C36.3206 33.6816 36.6835 34.0234 36.6835 34.9121C36.6835 35.8008 35.9677 36.416 35.1512 36.416ZM37.8629 30.0098C37.3387 30.0098 36.9859 29.7852 36.623 29.5996C30.3226 25.9863 20.9274 24.5313 12.5706 26.7285C12.0867 26.8555 11.8246 26.9824 11.371 26.9824C10.2923 26.9824 9.41532 26.1328 9.41532 25.0879C9.41532 24.043 9.93952 23.3496 10.9778 23.0664C13.7802 22.3047 16.6431 21.7383 20.8367 21.7383C27.379 21.7383 33.6996 23.3105 38.6794 26.1816C39.496 26.6504 39.8186 27.2559 39.8186 28.1055C39.8085 29.1602 38.9617 30.0098 37.8629 30.0098ZM40.9879 22.5684C40.4637 22.5684 40.1411 22.4414 39.6875 22.1875C32.5101 18.0371 19.6774 17.041 11.371 19.2871C11.0081 19.3848 10.5544 19.541 10.0706 19.541C8.73992 19.541 7.72177 18.5352 7.72177 17.2363C7.72177 15.9082 8.56855 15.1563 9.47581 14.9023C13.0242 13.8965 16.996 13.418 21.3206 13.418C28.6794 13.418 36.3911 14.9023 42.0262 18.0859C42.8125 18.5254 43.3266 19.1309 43.3266 20.293C43.3266 21.6211 42.2177 22.5684 40.9879 22.5684Z" fill="#0D0C0C"/>
</svg>
