<svg width="182" height="55" viewBox="0 0 182 55" fill="none" xmlns="http://www.w3.org/2000/svg">
<g clip-path="url(#clip0_6_4)">
<path d="M27.2932 3.05176e-05C12.2199 3.05176e-05 0 12.3121 0 27.4995C0 42.6886 12.2199 55 27.2932 55C42.3671 55 54.5864 42.6886 54.5864 27.4995C54.5864 12.3131 42.3678 0.00134305 27.2928 0.00134305L27.2932 3.05176e-05V3.05176e-05ZM39.8097 39.6622C39.3195 40.4723 38.272 40.7262 37.4706 40.2326C31.0614 36.2858 22.9943 35.3942 13.4939 37.5809C12.5784 37.7924 11.6658 37.2141 11.4573 36.292C11.2477 35.3696 11.819 34.4501 12.7368 34.2399C23.1335 31.845 32.0515 32.8758 39.2455 37.3051C40.0472 37.8009 40.3014 38.8551 39.8093 39.6629L39.8097 39.6622V39.6622ZM43.1503 32.1754C42.533 33.1845 41.2235 33.5011 40.2232 32.8814C32.8885 28.3386 21.704 27.0227 13.0265 29.6767C11.9011 30.0192 10.7125 29.3802 10.371 28.2483C10.032 27.1143 10.6666 25.919 11.79 25.5742C21.7021 22.5439 34.0243 24.0118 42.4492 29.2282C43.4498 29.8488 43.7659 31.1689 43.15 32.1757L43.1503 32.1754ZM43.4371 24.3782C34.6393 19.1139 20.1276 18.6299 11.729 21.1982C10.3804 21.6103 8.95419 20.8432 8.54549 19.4843C8.1368 18.1248 8.89748 16.6888 10.2471 16.2757C19.888 13.3268 35.915 13.8966 46.0425 19.9543C47.2555 20.6796 47.6535 22.2582 46.9345 23.4788C46.2175 24.701 44.6465 25.104 43.4374 24.3782H43.4371V24.3782ZM74.2557 25.387C69.5433 24.2548 68.7044 23.4601 68.7044 21.7902C68.7044 20.2127 70.1785 19.151 72.3706 19.151C74.4956 19.151 76.6026 19.9572 78.8117 21.6169C78.8785 21.6671 78.9623 21.6871 79.0447 21.674C79.1272 21.6615 79.2002 21.6159 79.2484 21.5473L81.5494 18.2792C81.6439 18.1445 81.6182 17.959 81.4907 17.8562C78.8616 15.7306 75.901 14.6972 72.4404 14.6972C67.3522 14.6972 63.7981 17.7738 63.7981 22.1758C63.7981 26.8963 66.864 28.5678 72.1621 29.858C76.6714 30.9045 77.4325 31.7813 77.4325 33.3487C77.4325 35.0855 75.8935 36.1653 73.4168 36.1653C70.6661 36.1653 68.4225 35.2317 65.9126 33.0417C65.8504 32.9875 65.765 32.9629 65.6861 32.9675C65.603 32.9744 65.5271 33.0131 65.4743 33.0771L62.8943 36.1708C62.7861 36.2992 62.7998 36.491 62.925 36.602C65.8452 39.2288 69.4367 40.6162 73.3126 40.6162C78.7954 40.6162 82.3385 37.5977 82.3385 32.9258C82.3482 28.9819 80.0049 26.7981 74.2655 25.3913L74.2557 25.387V25.387ZM94.7428 20.7043C92.3662 20.7043 90.4169 21.6474 88.8095 23.5799V21.4047C88.8095 21.233 88.6713 21.0931 88.5012 21.0931H84.2815C84.1111 21.0931 83.9732 21.233 83.9732 21.4047V45.5744C83.9732 45.7462 84.1111 45.886 84.2815 45.886H88.5012C88.6713 45.886 88.8095 45.7462 88.8095 45.5744V37.9451C90.4173 39.763 92.3669 40.6513 94.7428 40.6513C99.1586 40.6513 103.629 37.2263 103.629 30.6789C103.635 24.13 99.1639 20.704 94.7477 20.704L94.7428 20.7043ZM98.7222 30.6789C98.7222 34.013 96.684 36.3396 93.7654 36.3396C90.8801 36.3396 88.7036 33.9073 88.7036 30.6789C88.7036 27.4509 90.8801 25.0183 93.7654 25.0183C96.6367 25.0179 98.7226 27.3981 98.7226 30.6786L98.7222 30.6789V30.6789ZM115.086 20.7043C109.4 20.7043 104.944 25.1165 104.944 30.7502C104.944 36.3225 109.369 40.6884 115.017 40.6884C120.724 40.6884 125.193 36.291 125.193 30.6789C125.193 25.0862 120.754 20.7049 115.086 20.7049L115.086 20.7043V20.7043ZM115.086 36.3728C112.062 36.3728 109.781 33.924 109.781 30.6773C109.781 27.4168 111.983 25.0508 115.017 25.0508C118.061 25.0508 120.357 27.4995 120.357 30.7485C120.357 34.0084 118.141 36.3728 115.087 36.3728H115.086V36.3728ZM137.337 21.0931H132.693V16.3099C132.693 16.1384 132.556 15.9986 132.385 15.9986H128.166C127.996 15.9986 127.857 16.1384 127.857 16.3099V21.0931H125.828C125.659 21.0931 125.521 21.233 125.521 21.4047V25.0587C125.521 25.2301 125.659 25.3703 125.828 25.3703H127.857V34.8248C127.857 38.6455 129.745 40.5827 133.467 40.5827C134.98 40.5827 136.236 40.2678 137.42 39.5916C137.516 39.5374 137.575 39.433 137.575 39.322V35.8425C137.575 35.7351 137.52 35.6336 137.429 35.5775C137.337 35.5193 137.222 35.5164 137.128 35.5633C136.315 35.9755 135.53 36.1656 134.651 36.1656C133.297 36.1656 132.693 35.5463 132.693 34.1582V25.372H137.337C137.507 25.372 137.644 25.2321 137.644 25.0603V21.4067C137.651 21.235 137.514 21.0951 137.341 21.0951L137.337 21.0931V21.0931ZM153.515 21.1118V20.5243C153.515 18.796 154.173 18.0253 155.648 18.0253C156.528 18.0253 157.234 18.2013 158.026 18.4673C158.123 18.4982 158.225 18.4828 158.304 18.424C158.385 18.3652 158.431 18.271 158.431 18.1711V14.5885C158.431 14.4515 158.344 14.3303 158.213 14.2899C157.377 14.0394 156.307 13.7823 154.706 13.7823C150.809 13.7823 148.748 15.9936 148.748 20.1749V21.0747H146.721C146.551 21.0747 146.412 21.2146 146.412 21.386V25.0586C146.412 25.2301 146.551 25.3703 146.721 25.3703H148.748V39.9535C148.748 40.1252 148.886 40.2651 149.056 40.2651H153.276C153.446 40.2651 153.585 40.1252 153.585 39.9535V25.3713H157.525L163.56 39.9509C162.875 41.4828 162.201 41.7875 161.281 41.7875C160.538 41.7875 159.755 41.5639 158.954 41.1225C158.879 41.0808 158.79 41.0739 158.709 41.0992C158.628 41.1278 158.56 41.1882 158.526 41.267L157.096 44.4284C157.028 44.5778 157.086 44.7532 157.229 44.8306C158.722 45.6453 160.07 45.9931 161.736 45.9931C164.851 45.9931 166.573 44.5308 168.092 40.5968L175.412 21.5374C175.449 21.4415 175.438 21.3331 175.379 21.2481C175.321 21.1637 175.228 21.1128 175.125 21.1128H170.733C170.601 21.1128 170.483 21.1972 170.44 21.3216L165.941 34.2724L161.012 21.3131C160.967 21.1926 160.851 21.1128 160.724 21.1128H153.514L153.515 21.1118V21.1118ZM144.135 21.0931H139.916C139.745 21.0931 139.606 21.233 139.606 21.4047V39.9535C139.606 40.1252 139.745 40.2651 139.916 40.2651H144.135C144.306 40.2651 144.445 40.1252 144.445 39.9535V21.406C144.445 21.3651 144.437 21.3245 144.421 21.2866C144.406 21.2487 144.383 21.2143 144.354 21.1853C144.325 21.1564 144.291 21.1334 144.254 21.1178C144.216 21.1022 144.176 21.0943 144.135 21.0944L144.135 21.0931ZM142.05 12.6474C140.378 12.6474 139.021 14.0108 139.021 15.6951C139.021 17.3804 140.378 18.7455 142.05 18.7455C143.721 18.7455 145.076 17.3804 145.076 15.6951C145.076 14.0112 143.72 12.6474 142.051 12.6474H142.05V12.6474ZM179.015 27.0569C177.345 27.0569 176.046 25.7056 176.046 24.0646C176.046 22.4237 177.362 21.057 179.031 21.057C180.701 21.057 182 22.4079 182 24.0476C182 25.6885 180.683 27.0569 179.015 27.0569H179.015V27.0569ZM179.031 21.3545C177.51 21.3545 176.359 22.5728 176.359 24.0646C176.359 25.5558 177.502 26.7577 179.016 26.7577C180.537 26.7577 181.689 25.5404 181.689 24.0476C181.689 22.5564 180.545 21.3545 179.033 21.3545H179.031V21.3545ZM179.69 24.3552L180.53 25.5401H179.821L179.065 24.4531H178.415V25.5401H177.822V22.3994H179.212C179.936 22.3994 180.413 22.7728 180.413 23.4013C180.416 23.9162 180.119 24.2308 179.692 24.3553H179.69V24.3552ZM179.188 22.9383H178.415V23.9317H179.188C179.574 23.9317 179.804 23.7415 179.804 23.4345C179.804 23.1114 179.573 22.9383 179.188 22.9383H179.188V22.9383Z" fill="white"/>
</g>
<defs>
<clipPath id="clip0_6_4">
<rect width="182" height="55" fill="white"/>
</clipPath>
</defs>
</svg>
